<?xml version="1.0" standalone="no"?>
<!DOCTYPE svg PUBLIC "-//W3C//DTD SVG 20010904//EN"
 "http://www.w3.org/TR/2001/REC-SVG-20010904/DTD/svg10.dtd">
<svg version="1.0" xmlns="http://www.w3.org/2000/svg"
 width="395.000000pt" height="102.000000pt" viewBox="0 0 395.000000 102.000000"
 preserveAspectRatio="xMidYMid meet">

<g transform="translate(0.000000,102.000000) scale(0.100000,-0.100000)"
fill="#000000" stroke="none">
<path d="M0 510 l0 -510 1975 0 1975 0 0 510 0 510 -1975 0 -1975 0 0 -510z
m1185 320 c-9 -14 8 -13 23 2 23 23 23 -20 -3 -148 -24 -125 -49 -430 -38
-472 2 -11 0 -23 -6 -26 -15 -10 -162 30 -265 71 l-90 35 -40 -43 c-23 -24
-65 -71 -94 -104 l-53 -60 -19 24 c-11 13 -20 29 -20 36 0 7 -11 53 -25 101
-14 49 -32 113 -41 141 -13 48 -19 55 -66 79 -118 60 -192 124 -143 124 8 0
15 4 15 9 0 12 110 51 285 100 77 22 174 52 215 66 74 26 289 73 343 74 16 1
26 -3 22 -9z m457 -150 c66 -19 100 -96 64 -146 -13 -17 -12 -22 12 -47 57
-59 26 -154 -57 -177 -52 -14 -234 -13 -249 2 -8 8 -12 63 -12 183 0 120 4
175 12 183 15 15 178 16 230 2z m292 4 c14 -5 16 -29 16 -165 l0 -159 109 0
c84 0 111 -3 121 -15 10 -12 10 -18 0 -30 -11 -13 -37 -15 -154 -13 l-141 3
-3 179 c-3 200 2 219 52 200z m634 -13 c47 -24 70 -50 88 -98 37 -104 -3 -216
-92 -258 -51 -24 -140 -22 -192 4 -132 67 -134 282 -4 351 50 26 150 27 200 1z
m499 8 c37 -14 73 -48 73 -70 0 -30 -35 -32 -75 -4 -44 29 -118 34 -153 9 -73
-51 -67 -200 9 -239 38 -20 94 -19 130 2 23 14 29 25 29 50 0 33 -1 33 -47 33
-57 0 -76 10 -71 36 3 17 13 19 93 19 l90 0 3 -63 c4 -78 -9 -101 -73 -132
-93 -45 -202 -21 -254 56 -27 38 -38 117 -27 179 8 42 58 103 101 121 37 16
133 18 172 3z m510 -10 c128 -62 131 -278 5 -347 -75 -42 -192 -29 -245 26
-74 77 -74 230 -1 293 62 53 164 65 241 28z"/>
<path d="M1010 779 c-47 -10 -148 -39 -225 -63 -141 -45 -371 -114 -413 -123
-12 -3 -22 -8 -22 -12 0 -4 36 -29 80 -55 l81 -48 83 56 c91 61 271 154 431
222 111 48 109 50 -15 23z"/>
<path d="M1095 705 c-44 -35 -109 -86 -145 -111 -36 -26 -98 -72 -139 -103
-40 -31 -94 -71 -120 -88 -37 -27 -41 -33 -23 -33 28 0 165 -41 265 -79 91
-34 174 -57 182 -49 3 3 10 74 15 159 6 85 20 202 33 262 13 59 21 107 18 107
-3 -1 -42 -30 -86 -65z"/>
<path d="M955 687 c-141 -66 -264 -132 -352 -190 l-70 -45 31 -110 c17 -60 34
-105 37 -99 4 7 10 43 14 80 6 57 10 70 28 77 12 5 47 29 77 54 30 26 105 84
165 130 106 80 195 155 185 155 -3 0 -55 -24 -115 -52z"/>
<path d="M649 318 c0 -13 -3 -54 -8 -92 l-7 -69 62 69 c35 38 63 71 64 75 0 5
-88 39 -102 39 -5 0 -8 -10 -9 -22z"/>
<path d="M1470 579 l0 -52 76 6 c81 6 107 19 102 51 -4 30 -44 46 -115 46
l-63 0 0 -51z"/>
<path d="M1470 414 l0 -56 86 3 c75 4 88 7 104 27 11 13 16 31 13 40 -12 34
-36 42 -120 42 l-83 0 0 -56z"/>
<path d="M2414 620 c-81 -32 -95 -174 -23 -234 24 -20 41 -26 81 -26 43 0 54
4 83 33 85 85 35 238 -78 236 -23 0 -52 -4 -63 -9z"/>
<path d="M3402 605 c-64 -53 -67 -152 -7 -212 29 -29 40 -33 84 -33 41 0 56 5
81 28 39 34 53 91 39 149 -15 59 -47 85 -112 91 -46 4 -57 1 -85 -23z"/>
</g>
</svg>
